<svg width="834" height="253" viewBox="0 0 834 253" fill="none" xmlns="http://www.w3.org/2000/svg">
<path d="M153.135 150.592H83.7109C85.1063 157.11 88.2461 162.173 93.1302 165.781C98.1306 169.389 104.294 171.193 111.62 171.193C121.505 171.193 129.005 167.585 134.122 160.369L149.646 169.447C141.157 182.133 128.424 188.476 111.446 188.476C97.3747 188.476 85.9203 184.17 77.0824 175.557C68.3608 166.828 64 155.83 64 142.561C64 129.642 68.3027 118.76 76.908 109.915C85.397 101.069 96.4444 96.6467 110.05 96.6467C122.726 96.6467 133.192 101.128 141.448 110.089C149.704 119.051 153.833 129.933 153.833 142.736C153.833 145.064 153.6 147.682 153.135 150.592ZM83.5364 135.229H134.82C133.54 128.362 130.633 123.067 126.098 119.342C121.679 115.618 116.272 113.756 109.876 113.756C102.898 113.756 97.084 115.676 92.4325 119.517C87.7809 123.358 84.8156 128.595 83.5364 135.229Z" fill="white"/>
<path d="M233.74 111.311V64H252.579V186.207H233.74V173.637C226.647 183.53 216.472 188.476 203.215 188.476C191.237 188.476 181.004 184.054 172.515 175.208C164.026 166.363 159.781 155.48 159.781 142.561C159.781 129.642 164.026 118.76 172.515 109.915C181.004 101.069 191.237 96.6467 203.215 96.6467C216.472 96.6467 226.647 101.535 233.74 111.311ZM186.469 162.638C191.702 167.876 198.272 170.494 206.18 170.494C214.088 170.494 220.658 167.876 225.891 162.638C231.124 157.284 233.74 150.592 233.74 142.561C233.74 134.531 231.124 127.897 225.891 122.659C220.658 117.305 214.088 114.628 206.18 114.628C198.272 114.628 191.702 117.305 186.469 122.659C181.236 127.897 178.62 134.531 178.62 142.561C178.62 150.476 181.236 157.168 186.469 162.638Z" fill="white"/>
<path d="M310.47 188.476C297.33 188.476 286.34 184.054 277.502 175.208C268.781 166.246 264.42 155.364 264.42 142.561C264.42 129.526 268.781 118.644 277.502 109.915C286.34 101.069 297.33 96.6467 310.47 96.6467C318.959 96.6467 326.692 98.6834 333.67 102.757C340.647 106.831 345.88 112.301 349.369 119.168L333.146 128.595C331.169 124.405 328.146 121.146 324.076 118.818C320.122 116.374 315.529 115.152 310.296 115.152C302.621 115.152 296.167 117.771 290.934 123.008C285.817 128.362 283.259 134.88 283.259 142.561C283.259 150.243 285.817 156.761 290.934 162.115C296.167 167.352 302.621 169.971 310.296 169.971C315.412 169.971 320.006 168.807 324.076 166.479C328.262 164.035 331.402 160.718 333.495 156.528L349.717 165.781C345.996 172.764 340.589 178.292 333.495 182.366C326.518 186.439 318.843 188.476 310.47 188.476Z" fill="white"/>
<path d="M377.451 98.9162V113.581C382.219 102.757 391.173 97.345 404.313 97.345V117.771C397.22 117.305 390.94 119.051 385.475 123.008C380.125 126.849 377.451 133.25 377.451 142.212V186.207H358.612V98.9162H377.451Z" fill="white"/>
<path d="M471.783 145.704V98.9162H490.622V186.207H471.783V175.034C465.969 183.995 456.957 188.476 444.746 188.476C434.629 188.476 426.489 185.276 420.326 178.874C414.279 172.357 411.255 163.569 411.255 152.513V98.9162H430.094V150.592C430.094 157.11 431.838 162.115 435.327 165.606C438.816 169.098 443.583 170.844 449.63 170.844C456.491 170.844 461.899 168.749 465.853 164.559C469.806 160.252 471.783 153.967 471.783 145.704Z" fill="white"/>
<path d="M553.294 96.6467C563.411 96.6467 571.493 99.9055 577.54 106.423C583.703 112.824 586.785 121.554 586.785 132.61V186.207H567.946V134.531C567.946 128.013 566.202 123.008 562.713 119.517C559.224 116.025 554.457 114.279 548.41 114.279C541.549 114.279 536.141 116.432 532.187 120.739C528.234 124.929 526.257 131.155 526.257 139.419V186.207H507.418V98.9162H526.257V110.089C532.071 101.128 541.083 96.6467 553.294 96.6467Z" fill="white"/>
<path d="M643.002 188.476C629.862 188.476 618.872 184.054 610.035 175.208C601.313 166.246 596.952 155.364 596.952 142.561C596.952 129.526 601.313 118.644 610.035 109.915C618.872 101.069 629.862 96.6467 643.002 96.6467C651.491 96.6467 659.224 98.6834 666.202 102.757C673.179 106.831 678.412 112.301 681.901 119.168L665.679 128.595C663.702 124.405 660.678 121.146 656.608 118.818C652.654 116.374 648.061 115.152 642.828 115.152C635.153 115.152 628.699 117.771 623.466 123.008C618.349 128.362 615.791 134.88 615.791 142.561C615.791 150.243 618.349 156.761 623.466 162.115C628.699 167.352 635.153 169.971 642.828 169.971C647.945 169.971 652.538 168.807 656.608 166.479C660.794 164.035 663.934 160.718 666.027 156.528L682.25 165.781C678.528 172.764 673.121 178.292 666.027 182.366C659.05 186.439 651.375 188.476 643.002 188.476Z" fill="white"/>
<path d="M736.509 96.6467C746.626 96.6467 754.708 99.9055 760.755 106.423C766.918 112.824 770 121.554 770 132.61V186.207H751.161V134.531C751.161 128.013 749.417 123.008 745.928 119.517C742.44 116.025 737.672 114.279 731.625 114.279C724.764 114.279 719.356 116.432 715.403 120.739C711.449 124.929 709.472 131.155 709.472 139.419V186.207H690.633V64H709.472V110.089C715.286 101.128 724.299 96.6467 736.509 96.6467Z" fill="white"/>
<path d="M133.424 64H110.748L96.793 87.5684H114.934L133.424 64Z" fill="#DDFF36"/>
</svg>
