<svg xmlns="http://www.w3.org/2000/svg" xmlns:xlink="http://www.w3.org/1999/xlink" viewBox="0 0 362.71 41.55"><defs><style>.cls-1{fill:none;}.cls-2{clip-path:url(#clip-path);}.cls-3{isolation:isolate;}.cls-4{clip-path:url(#clip-path-2);}.cls-5{fill:#fff;}.cls-6{fill:#36cdc4;}</style><clipPath id="clip-path" transform="translate(0 0)"><rect class="cls-1" width="362.71" height="41.55"></rect></clipPath><clipPath id="clip-path-2" transform="translate(0 0)"><rect class="cls-1" width="362.75" height="41.75"></rect></clipPath></defs><g id="Livello_2" data-name="Livello 2"><g id="Livello_1-2" data-name="Livello 1"><g class="cls-2"><g class="cls-3"><g class="cls-4"><path class="cls-5" d="M57,39q-4,0-4-4V8q0-4,4-4H74.38c2,0,3,1,3,3a2.7,2.7,0,0,1-3,3h-14v8.2h12.9q3.08,0,3.08,3t-3.08,3H60.34V33h14c2,0,3,1,3,3a2.7,2.7,0,0,1-3,3H57Z" transform="translate(0 0)"></path><path class="cls-5" d="M95.85,33.92a4.89,4.89,0,0,0,3.89-1.74c1-1.16,1.54-3,1.54-5.42s-.51-4.2-1.54-5.32a5.21,5.21,0,0,0-7.77,0c-1,1.12-1.49,2.9-1.49,5.32S91,31,92,32.18a4.87,4.87,0,0,0,3.88,1.74m-2.23,5.62A10.29,10.29,0,0,1,88,38a10.72,10.72,0,0,1-3.73-4.43,15.91,15.91,0,0,1-1.35-6.81A15.66,15.66,0,0,1,84.26,20a9.84,9.84,0,0,1,9.36-5.91,9.81,9.81,0,0,1,4.48,1,7.48,7.48,0,0,1,3.08,2.79V7.31c0-2.55,1.24-3.83,3.74-3.83s3.78,1.28,3.78,3.83v28.3c0,2.56-1.24,3.83-3.74,3.83s-3.73-1.27-3.73-3.83v-.15a7,7,0,0,1-3.09,3,9.35,9.35,0,0,1-4.52,1.09Z" transform="translate(0 0)"></path><path class="cls-5" d="M128.22,39.54q-10.29,0-10.3-10V20.19h-2.09q-2.94,0-2.94-2.79c0-1.86,1-2.84,2.94-2.84h2.09V10.78Q117.92,7,121.7,7c2.52,0,3.73,1.28,3.73,3.83v3.78h4.73c1.92,0,2.89.95,2.89,2.84s-1,2.79-2.89,2.79h-4.73v9a4.54,4.54,0,0,0,.95,3.13,4.12,4.12,0,0,0,3.13,1,6.2,6.2,0,0,0,1.4-.15,8.44,8.44,0,0,1,1.19-.2,1.31,1.31,0,0,1,1.14.45,3.19,3.19,0,0,1,.45,2,5.35,5.35,0,0,1-.39,2.14,2.48,2.48,0,0,1-1.39,1.24,7.87,7.87,0,0,1-1.8.4,10.14,10.14,0,0,1-1.89.2Z" transform="translate(0 0)"></path><path class="cls-5" d="M149.5,19a5.38,5.38,0,0,0-3.89,1.45,6.77,6.77,0,0,0-1.79,4h10.75c-.2-3.65-1.9-5.47-5.08-5.47Zm1,20.5A16.72,16.72,0,0,1,143.08,38a11.64,11.64,0,0,1-4.78-4.43,13.49,13.49,0,0,1-1.64-6.77,13,13,0,0,1,1.6-6.61,11.67,11.67,0,0,1,4.42-4.48,12.86,12.86,0,0,1,6.52-1.64,11,11,0,0,1,8.46,3.38q3.14,3.35,3.14,9.05,0,1.89-2.34,1.89H143.83a6.22,6.22,0,0,0,2.09,4.23,7.85,7.85,0,0,0,4.77,1.29,16,16,0,0,0,2.69-.25,11.22,11.22,0,0,0,2.94-1,2.88,2.88,0,0,1,2.43-.25,2.29,2.29,0,0,1,1.35,1.39,2.8,2.8,0,0,1,0,2.09,3.19,3.19,0,0,1-1.64,1.74,13.85,13.85,0,0,1-3.88,1.4,18.11,18.11,0,0,1-4,.49Z" transform="translate(0 0)"></path><path class="cls-5" d="M178.81,39.54a15,15,0,0,1-7-1.54,11.23,11.23,0,0,1-4.53-4.48,13.88,13.88,0,0,1-1.59-6.81,13.66,13.66,0,0,1,1.59-6.77,10.67,10.67,0,0,1,4.53-4.32,15,15,0,0,1,7-1.54,15.16,15.16,0,0,1,3.29.39,12.11,12.11,0,0,1,3.43,1.25,2.63,2.63,0,0,1,1.54,1.69,3,3,0,0,1-.14,2.09A2.81,2.81,0,0,1,185.58,21a2.3,2.3,0,0,1-2.13-.2,8.29,8.29,0,0,0-3.89-1A5.83,5.83,0,0,0,175,21.64a7.46,7.46,0,0,0-1.59,5.12A7.74,7.74,0,0,0,175,31.93a5.82,5.82,0,0,0,4.58,1.84,10,10,0,0,0,1.9-.2,8.68,8.68,0,0,0,2-.79,2.14,2.14,0,0,1,2.13-.15,2.65,2.65,0,0,1,1.3,1.54,3.45,3.45,0,0,1,.05,2.09A2.68,2.68,0,0,1,185.44,38a15.59,15.59,0,0,1-6.63,1.59Z" transform="translate(0 0)"></path><path class="cls-5" d="M196.21,39.44c-2.52,0-3.79-1.27-3.79-3.83V7.31c0-2.55,1.27-3.83,3.79-3.83s3.73,1.28,3.73,3.83v10.6a8.16,8.16,0,0,1,3.33-2.84,10.24,10.24,0,0,1,4.53-1q8.61,0,8.62,10.24V35.61c0,2.56-1.27,3.83-3.79,3.83a3.8,3.8,0,0,1-2.79-1,4,4,0,0,1-.94-2.84V24.67A5.51,5.51,0,0,0,208,21a3.39,3.39,0,0,0-2.79-1.14,5.06,5.06,0,0,0-3.83,1.49,5.58,5.58,0,0,0-1.39,4V35.61C199.94,38.17,198.7,39.44,196.21,39.44Z" transform="translate(0 0)"></path><path class="cls-5" d="M243.94,39.44a3.81,3.81,0,0,1-2.89-1,4.06,4.06,0,0,1-1-2.94v-28q0-4,3.89-4c2.58,0,3.83,1.33,3.83,4v28q0,4-3.83,4Z" transform="translate(0 0)"></path><path class="cls-5" d="M267.92,39.54q-10.29,0-10.3-10V20.19h-2.09c-1.95,0-2.93-.93-2.93-2.79s1-2.84,2.93-2.84h2.09V10.78c0-2.55,1.27-3.83,3.78-3.83s3.74,1.28,3.74,3.83v3.78h4.73c1.92,0,2.89.95,2.89,2.84s-1,2.79-2.89,2.79h-4.73v9a4.54,4.54,0,0,0,.95,3.13,4.13,4.13,0,0,0,3.14,1,6.17,6.17,0,0,0,1.39-.15,8.21,8.21,0,0,1,1.19-.2,1.3,1.3,0,0,1,1.14.45,3.13,3.13,0,0,1,.45,2,5.35,5.35,0,0,1-.39,2.14,2.43,2.43,0,0,1-1.4,1.24,7.89,7.89,0,0,1-1.79.4,10.24,10.24,0,0,1-1.9.2Z" transform="translate(0 0)"></path><path class="cls-5" d="M287.75,34.51a4.81,4.81,0,0,0,3.53-1.44,5.08,5.08,0,0,0,1.45-3.73v-1H291a14.9,14.9,0,0,0-5.42.7,2.31,2.31,0,0,0-1.6,2.29,3,3,0,0,0,.95,2.29,4.1,4.1,0,0,0,2.84.9Zm-1.69,5a10.6,10.6,0,0,1-4.83-1,8.62,8.62,0,0,1-3.33-2.83,7.1,7.1,0,0,1-1.2-4,6.19,6.19,0,0,1,1.4-4.23,8,8,0,0,1,4.53-2.24,40.13,40.13,0,0,1,8.31-.69h1.79v-.85a4,4,0,0,0-1-3.08,4.82,4.82,0,0,0-3.39-.95,13.31,13.31,0,0,0-2.93.35A18.09,18.09,0,0,0,282,21a2.64,2.64,0,0,1-2.33.1,2.56,2.56,0,0,1-1.25-1.59,3.37,3.37,0,0,1,.15-2.19,3,3,0,0,1,1.9-1.6,23.24,23.24,0,0,1,4.38-1.24,21.05,21.05,0,0,1,3.83-.4q5.67,0,8.46,2.59c1.86,1.69,2.78,4.33,2.78,7.91v11q0,3.82-3.48,3.83c-2.31,0-3.53-1.28-3.53-3.83v-.3a6.29,6.29,0,0,1-2.54,3.09,7.65,7.65,0,0,1-4.28,1.14Z" transform="translate(0 0)"></path><path class="cls-5" d="M316.05,39.54q-8.81,0-8.81-9.8V7.31q0-3.82,3.78-3.83c2.52,0,3.74,1.28,3.74,3.83V29.44a4.58,4.58,0,0,0,.85,3,3.05,3.05,0,0,0,2.33,1,4.43,4.43,0,0,0,.75,0,6.59,6.59,0,0,1,.75-.05,1.06,1.06,0,0,1,1.09.5,4.61,4.61,0,0,1,.35,2.24c0,1.92-.81,3-2.44,3.28l-1.14.11a9.12,9.12,0,0,1-1.24.1Z" transform="translate(0 0)"></path><path class="cls-5" d="M329.34,39.39a3.75,3.75,0,0,1-2.84-1,4.51,4.51,0,0,1-.94-3v-17q0-4.12,3.78-4.12a3.39,3.39,0,0,1,2.73,1.09,4.22,4.22,0,0,1,1,3v17a4.52,4.52,0,0,1-.95,3,3.56,3.56,0,0,1-2.79,1Zm0-29.3a5,5,0,0,1-3.24-.94A3.6,3.6,0,0,1,325,6.36a3.53,3.53,0,0,1,1.1-2.79,4.76,4.76,0,0,1,3.24-1q4.28,0,4.28,3.78c0,2.52-1.43,3.73-4.28,3.73Z" transform="translate(0 0)"></path><path class="cls-5" d="M350.57,34.51a4.81,4.81,0,0,0,3.53-1.44,5.08,5.08,0,0,0,1.45-3.73v-1h-1.74a15,15,0,0,0-5.43.7,2.31,2.31,0,0,0-1.59,2.29,3,3,0,0,0,.94,2.29,4.1,4.1,0,0,0,2.84.9Zm-1.69,5a10.6,10.6,0,0,1-4.83-1,8.73,8.73,0,0,1-3.34-2.83,7.17,7.17,0,0,1-1.19-4,6.18,6.18,0,0,1,1.39-4.23,8,8,0,0,1,4.53-2.24,40.13,40.13,0,0,1,8.31-.69h1.79v-.85a4,4,0,0,0-1-3.08,4.84,4.84,0,0,0-3.39-.95,13.31,13.31,0,0,0-2.93.35,17.87,17.87,0,0,0-3.44,1,2.66,2.66,0,0,1-2.34.1,2.58,2.58,0,0,1-1.24-1.59,3.31,3.31,0,0,1,.15-2.19,3,3,0,0,1,1.89-1.6,23.66,23.66,0,0,1,4.38-1.24,21.14,21.14,0,0,1,3.83-.4q5.69,0,8.46,2.59t2.79,7.91v11q0,3.82-3.49,3.83c-2.32,0-3.53-1.28-3.53-3.83v-.3a6.29,6.29,0,0,1-2.54,3.09,7.65,7.65,0,0,1-4.28,1.14Z" transform="translate(0 0)"></path><path class="cls-5" d="M27.36,11.65a3.3,3.3,0,0,0-1.56,0,.83.83,0,0,1-.76-.22L18.61,5a.8.8,0,0,1-.22-.76,3.58,3.58,0,0,0,0-1.56,3.46,3.46,0,0,0-6.82,1.07,3.49,3.49,0,0,0,2.64,3.11,3.29,3.29,0,0,0,1.56,0,.81.81,0,0,1,.76.22L23,13.5a.82.82,0,0,1,.22.76,3.43,3.43,0,0,0,0,1.56,3.52,3.52,0,0,0,3.11,2.64,3.46,3.46,0,0,0,1.07-6.82Z" transform="translate(0 0)"></path><path class="cls-5" d="M15.83,11.65a3.3,3.3,0,0,0-1.56,0,.81.81,0,0,1-.76-.22L7.06,5a.83.83,0,0,1-.22-.76,3.43,3.43,0,0,0,0-1.56A3.51,3.51,0,0,0,3.72,0,3.46,3.46,0,0,0,2.65,6.83a3.29,3.29,0,0,0,1.56,0A.83.83,0,0,1,5,7.06L11.4,13.5a.8.8,0,0,1,.23.76,3.43,3.43,0,0,0,0,1.56,3.52,3.52,0,0,0,3.1,2.64,3.46,3.46,0,0,0,1.08-6.82Z" transform="translate(0 0)"></path><path class="cls-5" d="M15.48,23.12a3.47,3.47,0,0,0-1.21.05.81.81,0,0,1-.76-.22L7.07,16.51a.82.82,0,0,1-.22-.76,3.57,3.57,0,0,0,0-1.56,3.52,3.52,0,0,0-3.11-2.64,3.46,3.46,0,0,0-1.08,6.82,3.3,3.3,0,0,0,1.56,0,.8.8,0,0,1,.76.22L11.4,25a.82.82,0,0,1,.23.76,3.17,3.17,0,0,0,0,1.5.81.81,0,0,1-.23.75L5,34.49a.83.83,0,0,1-.76.22,3.43,3.43,0,0,0-1.56,0A3.46,3.46,0,1,0,6.83,38.9a3.25,3.25,0,0,0,0-1.55.81.81,0,0,1,.22-.76l6.44-6.44a.83.83,0,0,1,.75-.22A3.76,3.76,0,0,0,15,30a3.47,3.47,0,0,0,.46-6.9Z" transform="translate(0 0)"></path><path class="cls-5" d="M37.83,23.1a3.45,3.45,0,0,0-3.1,2.64,3.26,3.26,0,0,0,0,1.55.81.81,0,0,1-.22.76l-6.44,6.44a.82.82,0,0,1-.76.22,3.39,3.39,0,0,0-1.55,0,3.46,3.46,0,1,0,4.17,4.17,3.26,3.26,0,0,0,0-1.55.81.81,0,0,1,.22-.76l6.44-6.44a.82.82,0,0,1,.76-.22,3.39,3.39,0,0,0,1.55,0,3.46,3.46,0,0,0-1.07-6.81Z" transform="translate(0 0)"></path><path class="cls-5" d="M38.56,11.58a3.47,3.47,0,0,0-1.21.05.79.79,0,0,1-.76-.23L30.15,5a.83.83,0,0,1-.22-.76,3.43,3.43,0,0,0,0-1.56,3.46,3.46,0,1,0-4.17,4.18,3.25,3.25,0,0,0,1.55,0,.81.81,0,0,1,.76.22l6.44,6.44a.81.81,0,0,1,.22.75,3.76,3.76,0,0,0-.09.76,3.08,3.08,0,0,0,.09.75.81.81,0,0,1-.22.75L28.05,23a.83.83,0,0,1-.76.22,3.4,3.4,0,0,0-1.7,0,3.5,3.5,0,0,0-2.37,2.37,3.4,3.4,0,0,0,0,1.7.83.83,0,0,1-.22.76l-6.44,6.44a.82.82,0,0,1-.76.22,3.43,3.43,0,0,0-1.56,0,3.46,3.46,0,0,0,1.08,6.81,3.46,3.46,0,0,0,3.1-2.64,3.26,3.26,0,0,0,0-1.55.79.79,0,0,1,.22-.76L25,30.15a.84.84,0,0,1,.77-.22,3.49,3.49,0,0,0,1.69-.06,3.45,3.45,0,0,0,2.37-2.37,3.36,3.36,0,0,0,.06-1.69.84.84,0,0,1,.22-.77l6.44-6.43a.77.77,0,0,1,.75-.22,3.67,3.67,0,0,0,.75.08,3.46,3.46,0,0,0,.47-6.89Z" transform="translate(0 0)"></path><path class="cls-6" d="M38.13,5.16a1.73,1.73,0,1,1,1.74-1.73,1.73,1.73,0,0,1-1.74,1.73m0-5.16a3.46,3.46,0,1,0,3.46,3.46A3.46,3.46,0,0,0,38.09,0" transform="translate(0 0)"></path><path class="cls-6" d="M3.44,28.3a1.74,1.74,0,1,1,1.73-1.74A1.74,1.74,0,0,1,3.44,28.3m0-5.21a3.46,3.46,0,1,0,3.45,3.46,3.46,3.46,0,0,0-3.45-3.46Z" transform="translate(0 0)"></path><path class="cls-6" d="M38.13,39.87a1.74,1.74,0,1,1,1.74-1.74,1.74,1.74,0,0,1-1.74,1.74m0-5.24a3.46,3.46,0,1,0,3.46,3.46,3.46,3.46,0,0,0-3.46-3.46" transform="translate(0 0)"></path></g></g></g></g></g></svg>